<?xml version="1.0" encoding="UTF-8"?>
<svg id="Layer_1" data-name="Layer 1" xmlns="http://www.w3.org/2000/svg" viewBox="0 0 595.01 617.31">
  <defs>
    <style>
      .cls-1 {
        fill: #33a63b;
      }

      .cls-2 {
        fill: #593312;
      }

      .cls-3 {
        fill: #0b3a8c;
      }
    </style>
  </defs>
  <path class="cls-1" d="m142.88,331.56c39.45,0,75.17,15.99,101.03,41.85,25.85,25.85,41.85,61.58,41.85,101.03s-15.99,75.17-41.85,101.03c-25.85,25.85-61.57,41.85-101.03,41.85s-75.17-15.99-101.03-41.85C15.99,549.61,0,513.9,0,474.44s15.99-75.17,41.85-101.03c25.85-25.85,61.57-41.85,101.03-41.85h0Z"/>
  <path class="cls-2" d="m353.58,349.11h232.2c5.1,0,9.22,4.13,9.22,9.22v232.2c0,5.1-4.13,9.22-9.22,9.22h-232.2c-5.1,0-9.22-4.13-9.22-9.22v-232.2c0-5.1,4.13-9.22,9.22-9.22Z"/>
  <path class="cls-3" d="m407.47,158.48l61.9,93.38h.02c2.81,4.24,1.65,9.96-2.59,12.77-1.6,1.06-3.41,1.56-5.19,1.54H133.31c-5.1,0-9.22-4.13-9.22-9.22,0-2.1.7-4.04,1.89-5.59L289.83,4.15l7.68,5.08-7.69-5.1c2.81-4.25,8.54-5.41,12.79-2.59,1.25.83,2.23,1.91,2.92,3.12l101.95,153.82h0Z"/>
</svg>