<svg id="Layer_1" data-name="Layer 1" xmlns="http://www.w3.org/2000/svg" viewBox="0 0 208.32 104.89"><defs><style>.cls-1{fill:#603813;}.cls-2{fill:#37b34a;}.cls-3{fill:#2b388f;}.cls-4{fill:#fff;}</style></defs><path class="cls-1" d="M146.65,226.5l2.93-1.76q3.1,5.7,7.16,5.7a6.85,6.85,0,0,0,3.26-.81,5.7,5.7,0,0,0,3.12-5,5.85,5.85,0,0,0-1.17-3.4,27.87,27.87,0,0,0-5.92-5.54,31,31,0,0,1-5.37-4.71,8.64,8.64,0,0,1-1.83-5.28,8,8,0,0,1,1.08-4.11,7.7,7.7,0,0,1,3-2.92,8.78,8.78,0,0,1,4.26-1.07,9.13,9.13,0,0,1,4.56,1.21,15.65,15.65,0,0,1,4.49,4.45l-2.81,2.13a13.66,13.66,0,0,0-3.32-3.4,5.7,5.7,0,0,0-3-.82,4.75,4.75,0,0,0-3.42,1.27,4.14,4.14,0,0,0-1.32,3.12,5.22,5.22,0,0,0,.47,2.18,8,8,0,0,0,1.71,2.3q.67.64,4.46,3.45a25.07,25.07,0,0,1,6.14,5.88,9.5,9.5,0,0,1,1.67,5.19A8.81,8.81,0,0,1,164,231a9.6,9.6,0,0,1-6.93,2.77,10.14,10.14,0,0,1-5.7-1.68A15.31,15.31,0,0,1,146.65,226.5Z" transform="translate(-145.84 -197.55)"/><path class="cls-1" d="M206.28,204.83l-2.72,2.08a14.92,14.92,0,0,0-5.4-4.44,15.85,15.85,0,0,0-6.94-1.51,15.3,15.3,0,0,0-7.64,2,14.18,14.18,0,0,0-5.46,5.32,14.75,14.75,0,0,0-1.93,7.52,14.11,14.11,0,0,0,4.32,10.53,15,15,0,0,0,10.92,4.23,15.36,15.36,0,0,0,12.13-5.68l2.72,2.06a17.27,17.27,0,0,1-6.44,5.08,20.12,20.12,0,0,1-8.62,1.8q-9,0-14.28-6a18.18,18.18,0,0,1-4.39-12.29,17.07,17.07,0,0,1,5.31-12.75,18.34,18.34,0,0,1,13.32-5.18,19.42,19.42,0,0,1,8.72,1.92A16.8,16.8,0,0,1,206.28,204.83Z" transform="translate(-145.84 -197.55)"/><path class="cls-1" d="M227.3,198.42l16.1,34.51h-3.73l-5.43-11.35H219.38L214,232.93h-3.85l16.31-34.51Zm-.43,7.33L221,218.24h11.8Z" transform="translate(-145.84 -197.55)"/><path class="cls-1" d="M248.72,198.42h6.87a39,39,0,0,1,8,.52,8.81,8.81,0,0,1,4.83,3,8.61,8.61,0,0,1,1.88,5.69,8.71,8.71,0,0,1-1.83,5.69,9,9,0,0,1-5,3,44.37,44.37,0,0,1-8.78.56h-2.46v16.05h-3.45Zm3.45,3.38v11.71l5.84.07a15.19,15.19,0,0,0,5.18-.65,5.33,5.33,0,0,0,2.59-2.08,5.8,5.8,0,0,0,.93-3.22,5.71,5.71,0,0,0-.93-3.17,5.2,5.2,0,0,0-2.48-2.05,14.75,14.75,0,0,0-5-.61Z" transform="translate(-145.84 -197.55)"/><path class="cls-1" d="M277.2,198.42H297v3.38H280.65v10.81h16.19V216H280.65v13.56h16.19v3.38H277.2Z" transform="translate(-145.84 -197.55)"/><path class="cls-1" d="M299.37,226.5l2.93-1.76q3.1,5.7,7.16,5.7a6.88,6.88,0,0,0,3.26-.81,5.73,5.73,0,0,0,2.32-2.17,5.61,5.61,0,0,0,.8-2.88,5.79,5.79,0,0,0-1.18-3.4,27.76,27.76,0,0,0-5.91-5.54,30.62,30.62,0,0,1-5.37-4.71,8.64,8.64,0,0,1-1.83-5.28,8,8,0,0,1,1.08-4.11,7.7,7.7,0,0,1,3-2.92,8.75,8.75,0,0,1,4.26-1.07,9.15,9.15,0,0,1,4.56,1.21,15.78,15.78,0,0,1,4.49,4.45l-2.81,2.13a13.66,13.66,0,0,0-3.32-3.4,5.73,5.73,0,0,0-3-.82,4.73,4.73,0,0,0-3.42,1.27,4.14,4.14,0,0,0-1.32,3.12,5.22,5.22,0,0,0,.47,2.18,8,8,0,0,0,1.71,2.3q.68.64,4.46,3.45a25.07,25.07,0,0,1,6.14,5.88,9.5,9.5,0,0,1,1.67,5.19,8.81,8.81,0,0,1-2.85,6.52,9.6,9.6,0,0,1-6.93,2.77,10.19,10.19,0,0,1-5.71-1.68A15.4,15.4,0,0,1,299.37,226.5Z" transform="translate(-145.84 -197.55)"/><path class="cls-2" d="M348.24,219.37l3.91,4.48-1.78,1.62-1.75,1.59,5.54,5.87h-8l-2.27-2.35a20.08,20.08,0,0,1-10.11,3.22,9,9,0,0,1-6.42-2.32,7.87,7.87,0,0,1-2.45-6,10.31,10.31,0,0,1,1.39-5.19,18.08,18.08,0,0,1,4.76-5q-3.34-4.48-3.34-7.93a7.59,7.59,0,0,1,2.21-5,9.05,9.05,0,0,1,12.44,0,7.53,7.53,0,0,1,2.17,5,7.72,7.72,0,0,1-1,3.77,28.54,28.54,0,0,1-4.59,5.35q4.2,5,5.42,6.17C344.91,222.19,346.19,221.12,348.24,219.37ZM339.66,226a72.5,72.5,0,0,1-5.1-5.9c-2.32,1.92-3.47,3.61-3.47,5A2.47,2.47,0,0,0,332,227a3.52,3.52,0,0,0,2.41.84A11,11,0,0,0,339.66,226Zm-3.91-14.25q2.61-2.24,2.61-3.94a1.94,1.94,0,0,0-.59-1.46,2.17,2.17,0,0,0-1.55-.56,2,2,0,0,0-1.51.63,2.08,2.08,0,0,0-.62,1.48A6.6,6.6,0,0,0,335.75,211.77Z" transform="translate(-145.84 -197.55)"/><path class="cls-3" d="M168.52,244.27l-5.23,4.62q-2.76-3.84-5.61-3.84a3.4,3.4,0,0,0-2.28.75,2.17,2.17,0,0,0-.88,1.67,2.88,2.88,0,0,0,.63,1.77,47.82,47.82,0,0,0,5.18,4.77q4,3.38,4.9,4.26a14.74,14.74,0,0,1,3.05,4.15,10.33,10.33,0,0,1,.9,4.33,10,10,0,0,1-3.16,7.54,11.52,11.52,0,0,1-8.23,3,12.2,12.2,0,0,1-6.91-1.94,15.36,15.36,0,0,1-5-6.1l5.94-3.58c1.79,3.28,3.84,4.91,6.16,4.91A4.55,4.55,0,0,0,161,269.5a3.16,3.16,0,0,0,1.24-2.45,4.18,4.18,0,0,0-.94-2.52,26.18,26.18,0,0,0-4.11-3.86q-6.08-5-7.84-7.63a9.72,9.72,0,0,1-1.77-5.37,8.74,8.74,0,0,1,2.95-6.62,10.2,10.2,0,0,1,7.26-2.76,11.45,11.45,0,0,1,5.29,1.29A19.33,19.33,0,0,1,168.52,244.27Z" transform="translate(-145.84 -197.55)"/><path class="cls-3" d="M175.66,239.22h7.09v24a12.52,12.52,0,0,0,.54,4.39,4.38,4.38,0,0,0,1.79,2.05,5.67,5.67,0,0,0,3,.77,5.88,5.88,0,0,0,3.21-.86,4.55,4.55,0,0,0,1.87-2.18,16.31,16.31,0,0,0,.52-5.05V239.22h7.08v22.13a32.16,32.16,0,0,1-.63,7.77,12,12,0,0,1-6.5,7.17,13.88,13.88,0,0,1-5.4,1,13,13,0,0,1-7-1.85,10.75,10.75,0,0,1-4.27-4.64q-1.29-2.79-1.29-9.42Z" transform="translate(-145.84 -197.55)"/><path class="cls-3" d="M209.46,239.22H217q6.13,0,8.75,1.1a9,9,0,0,1,4.2,3.65,11.13,11.13,0,0,1,1.58,6,10.26,10.26,0,0,1-1.75,6.11,10.64,10.64,0,0,1-5.28,3.72l8.79,16.5h-7.72l-8.35-15.71h-.64v15.71h-7.07Zm7.07,14.51h2.21c2.24,0,3.79-.3,4.64-.89a3.34,3.34,0,0,0,1.27-2.93,3.61,3.61,0,0,0-.63-2.12,3.52,3.52,0,0,0-1.69-1.29,12.8,12.8,0,0,0-3.87-.39h-1.93Z" transform="translate(-145.84 -197.55)"/><path class="cls-3" d="M236.14,239.22h7.26l9.34,26.37,9.47-26.37h7.25l-13.37,37.11h-6.81Z" transform="translate(-145.84 -197.55)"/><path class="cls-3" d="M275.15,239.22h20.26v6.92H282.16v6.71h13.25v6.78H282.16v9.76h13.25v6.94H275.15Z" transform="translate(-145.84 -197.55)"/><path class="cls-3" d="M299.35,239.22h7.59l6.92,13.35,6.89-13.35h7.49l-10.86,21v16.07h-7.12V260.26Z" transform="translate(-145.84 -197.55)"/><path class="cls-3" d="M353.5,244.27l-5.23,4.62q-2.76-3.84-5.61-3.84a3.38,3.38,0,0,0-2.27.75,2.15,2.15,0,0,0-.89,1.67,2.88,2.88,0,0,0,.63,1.77,48.9,48.9,0,0,0,5.18,4.77c2.7,2.25,4.33,3.67,4.91,4.26a14.88,14.88,0,0,1,3,4.15,10.33,10.33,0,0,1,.9,4.33,9.91,9.91,0,0,1-3.16,7.54,11.52,11.52,0,0,1-8.23,3,12.2,12.2,0,0,1-6.91-1.94,15.36,15.36,0,0,1-5-6.1l5.94-3.58c1.79,3.28,3.84,4.91,6.17,4.91A4.54,4.54,0,0,0,346,269.5a3.16,3.16,0,0,0,1.24-2.45,4.23,4.23,0,0,0-.93-2.52,26.87,26.87,0,0,0-4.12-3.86q-6.07-5-7.84-7.63a9.72,9.72,0,0,1-1.77-5.37,8.78,8.78,0,0,1,2.95-6.62,10.2,10.2,0,0,1,7.26-2.76,11.45,11.45,0,0,1,5.29,1.29A19.33,19.33,0,0,1,353.5,244.27Z" transform="translate(-145.84 -197.55)"/><rect class="cls-1" x="0.4" y="86.79" width="207.51" height="18.1"/><path class="cls-4" d="M156.06,288.6l4.47,9.59h-1L158,295h-4.12l-1.5,3.16h-1.07l4.53-9.59Zm-.12,2-1.65,3.47h3.28Z" transform="translate(-145.84 -197.55)"/><path class="cls-4" d="M174.22,296.4l.81-.49c.57,1.06,1.24,1.59,2,1.59a1.88,1.88,0,0,0,.9-.23,1.58,1.58,0,0,0,.65-.6,1.53,1.53,0,0,0,.22-.8,1.63,1.63,0,0,0-.33-.95,7.82,7.82,0,0,0-1.64-1.54,8.31,8.31,0,0,1-1.49-1.31,2.38,2.38,0,0,1-.51-1.46,2.21,2.21,0,0,1,.3-1.14,2,2,0,0,1,.85-.81,2.38,2.38,0,0,1,1.18-.3,2.49,2.49,0,0,1,1.27.34,4.31,4.31,0,0,1,1.24,1.23l-.78.59a3.88,3.88,0,0,0-.92-.94,1.62,1.62,0,0,0-.83-.23,1.34,1.34,0,0,0-.95.35,1.16,1.16,0,0,0-.37.87,1.46,1.46,0,0,0,.13.61,2.39,2.39,0,0,0,.48.63,13.39,13.39,0,0,0,1.24,1,6.85,6.85,0,0,1,1.7,1.64,2.64,2.64,0,0,1,.47,1.44,2.45,2.45,0,0,1-.8,1.81,2.66,2.66,0,0,1-1.92.77,2.82,2.82,0,0,1-1.58-.47A4.2,4.2,0,0,1,174.22,296.4Z" transform="translate(-145.84 -197.55)"/><path class="cls-4" d="M195.33,296.4l.81-.49c.57,1.06,1.24,1.59,2,1.59a1.88,1.88,0,0,0,.9-.23,1.58,1.58,0,0,0,.65-.6,1.53,1.53,0,0,0,.22-.8,1.63,1.63,0,0,0-.33-.95,7.82,7.82,0,0,0-1.64-1.54,8.31,8.31,0,0,1-1.49-1.31,2.38,2.38,0,0,1-.51-1.46,2.21,2.21,0,0,1,.3-1.14,2,2,0,0,1,.85-.81,2.38,2.38,0,0,1,1.18-.3,2.49,2.49,0,0,1,1.27.34,4.31,4.31,0,0,1,1.24,1.23l-.78.59a3.88,3.88,0,0,0-.92-.94,1.62,1.62,0,0,0-.83-.23,1.34,1.34,0,0,0-1,.35,1.16,1.16,0,0,0-.37.87,1.46,1.46,0,0,0,.13.61,2.39,2.39,0,0,0,.48.63,13.39,13.39,0,0,0,1.24,1,6.85,6.85,0,0,1,1.7,1.64,2.64,2.64,0,0,1,.47,1.44,2.45,2.45,0,0,1-.8,1.81,2.66,2.66,0,0,1-1.92.77,2.82,2.82,0,0,1-1.58-.47A4.2,4.2,0,0,1,195.33,296.4Z" transform="translate(-145.84 -197.55)"/><path class="cls-4" d="M219.18,288.36a4.94,4.94,0,0,1,3.64,1.45,4.84,4.84,0,0,1,1.47,3.58,5.07,5.07,0,0,1-8.63,3.58,4.8,4.8,0,0,1-1.47-3.53,5,5,0,0,1,.67-2.56,4.76,4.76,0,0,1,1.82-1.85A4.86,4.86,0,0,1,219.18,288.36Zm0,.93a4,4,0,0,0-2,.56,3.92,3.92,0,0,0-1.48,1.49,4.12,4.12,0,0,0-.54,2.09,4,4,0,0,0,4,4.07,4.13,4.13,0,0,0,2.07-.54,4,4,0,0,0,1.48-1.49,4.33,4.33,0,0,0,0-4.15,4,4,0,0,0-1.5-1.47A4.05,4.05,0,0,0,219.22,289.29Z" transform="translate(-145.84 -197.55)"/><path class="cls-4" d="M245,290.38l-.76.58a4.2,4.2,0,0,0-1.5-1.23,4.43,4.43,0,0,0-1.93-.42,4.22,4.22,0,0,0-2.12.55,3.93,3.93,0,0,0-1.52,1.48,4.12,4.12,0,0,0-.53,2.08,3.93,3.93,0,0,0,1.2,2.93,4.16,4.16,0,0,0,3,1.17,4.26,4.26,0,0,0,3.37-1.57l.76.57a4.85,4.85,0,0,1-1.79,1.41,5.69,5.69,0,0,1-2.4.5,5,5,0,0,1-4-1.68,5,5,0,0,1-1.21-3.41,4.76,4.76,0,0,1,1.47-3.54,5.08,5.08,0,0,1,3.7-1.44,5.48,5.48,0,0,1,2.42.53A4.78,4.78,0,0,1,245,290.38Z" transform="translate(-145.84 -197.55)"/><path class="cls-4" d="M261,288.6h1v9.59h-1Z" transform="translate(-145.84 -197.55)"/><path class="cls-4" d="M282.72,288.6l4.47,9.59h-1l-1.5-3.16h-4.13l-1.5,3.16H278l4.53-9.59Zm-.12,2L281,294.11h3.28Z" transform="translate(-145.84 -197.55)"/><path class="cls-4" d="M301.05,289.54v-.94h5.26v.94h-2.14v8.65h-1v-8.65Z" transform="translate(-145.84 -197.55)"/><path class="cls-4" d="M322,288.6h5.5v.94H323v3h4.5v.94H323v3.77h4.5v.94H322Z" transform="translate(-145.84 -197.55)"/><path class="cls-4" d="M343.1,296.4l.81-.49c.57,1.06,1.24,1.59,2,1.59a1.88,1.88,0,0,0,.9-.23,1.58,1.58,0,0,0,.65-.6,1.53,1.53,0,0,0,.22-.8,1.63,1.63,0,0,0-.33-.95,7.82,7.82,0,0,0-1.64-1.54,8.31,8.31,0,0,1-1.49-1.31,2.38,2.38,0,0,1-.51-1.46,2.21,2.21,0,0,1,.3-1.14,2,2,0,0,1,.85-.81,2.38,2.38,0,0,1,1.18-.3,2.49,2.49,0,0,1,1.27.34,4.31,4.31,0,0,1,1.24,1.23l-.78.59a3.88,3.88,0,0,0-.92-.94,1.62,1.62,0,0,0-.83-.23,1.34,1.34,0,0,0-.95.35,1.16,1.16,0,0,0-.37.87,1.63,1.63,0,0,0,.13.61,2.39,2.39,0,0,0,.48.63,13.39,13.39,0,0,0,1.24,1,6.85,6.85,0,0,1,1.7,1.64,2.64,2.64,0,0,1,.47,1.44,2.45,2.45,0,0,1-.8,1.81,2.66,2.66,0,0,1-1.92.77,2.82,2.82,0,0,1-1.58-.47A4.2,4.2,0,0,1,343.1,296.4Z" transform="translate(-145.84 -197.55)"/></svg>